<svg xmlns="http://www.w3.org/2000/svg" version="1.1" xmlns:xlink="http://www.w3.org/1999/xlink" xmlns:svgjs="http://svgjs.dev/svgjs" width="100%" height="100%" viewBox="0 0 1000 600"><rect width="1000" height="600" x="0" y="0" fill="#f9d342"/><g><circle r="166.66666666666666" cx="263.16039530436194" cy="273.55740566273096" fill="#292826" transform="matrix(1.476345668193339,0,0,1.4763456681933387,8.316092256352803,-103.86530980114475)"/><path d="M79.03562883045467 285.4638243732609L144.4836693661403 285.4638243732609L144.4836693661403 299.41176743824315L79.03562883045467 299.41176743824315L79.03562883045467 285.4638243732609ZM195.98376683684376 198.55740989144886L214.879057228294 198.55740989144886L214.879057228294 315.5055478978379Q214.879057228294 331.80795143746457 207.48783953573934 340.18267793588336Q200.06681854603727 348.55740443430216 186.11887548105508 348.55740443430216L186.11887548105508 348.55740443430216Q183.34716884634707 348.55740443430216 179.59195340577497 348.2295681656808Q175.83673796520281 347.90173189705934 172.29014560466248 347.275862656964Q168.74355324412215 346.6201901197213 166.3890927694777 345.7558945024467L166.3890927694777 345.7558945024467L168.53493016409038 332.4636239747073L179.2641171371536 332.4636239747073Q195.98376683684376 332.4636239747073 195.98376683684376 316.16122043508074L195.98376683684376 316.16122043508074L195.98376683684376 198.55740989144886ZM289.7747429597048 198.55740989144886L309.5045256712822 198.55740989144886Q312.09741252310573 198.55740989144886 314.0048235405392 199.95816485737654Q315.9420378551201 201.35891982330423 316.59771039236284 203.71338029794865L316.59771039236284 203.71338029794865L364.22337923390455 346.6201901197213L344.702219602359 346.6201901197213L306.2857695793632 225.17175424407512Q305.4214739620886 222.16162123218794 304.4677684533719 219.06207832885858Q303.51406294465517 215.9327321283818 302.6497673273806 213.16102549367378L302.6497673273806 213.16102549367378L296.6295013036063 213.16102549367378Q295.76520568633174 215.9327321283818 294.9307133662046 219.06207832885858Q294.06641774893006 222.16162123218794 292.99349905162376 225.17175424407512L292.99349905162376 225.17175424407512L254.57704902862793 346.6201901197213L235.05588939708232 346.6201901197213L282.6815582386241 203.71338029794865Q283.33723077586683 201.35891982330423 285.27444509044767 199.95816485737654Q287.1818561078811 198.55740989144886 289.7747429597048 198.55740989144886L289.7747429597048 198.55740989144886ZM261.87885682974036 283.9736595158911L336.98316564118295 283.9736595158911L336.98316564118295 300.2760630555176L261.87885682974036 300.2760630555176L261.87885682974036 283.9736595158911ZM381.8371278480166 285.4638243732609L447.2851683837024 285.4638243732609L447.2851683837024 299.41176743824315L381.8371278480166 299.41176743824315L381.8371278480166 285.4638243732609Z " fill="#f9d342" transform="matrix(1.476345668193339,0,0,1.4763456681933387,8.316092256352803,-103.86530980114475)"/><path d="M549.4510865908446 214.28412414641917L549.4510865908446 214.28412414641917Q557.3931897038253 214.44161627613832 565.8077692059636 215.09408367068917Q574.244847583776 215.7240521895658 582.6594270859142 217.52396224349914L582.6594270859142 217.52396224349914L581.6919754319251 227.87344505361565Q574.7173239729335 227.55846079417734 566.3027444707952 227.3109731617615Q557.8881649686571 227.06348552934566 550.1035539853955 227.06348552934566L550.1035539853955 227.06348552934566Q544.1188530560672 227.06348552934566 539.8215678023014 227.46846529148067Q535.5242825485357 227.87344505361565 532.7794197162874 229.42586747513312Q530.0120580083649 230.95579102097642 528.7971187219599 234.44311675047223Q527.582179435555 237.93044247996804 527.582179435555 244.07263553901547L527.582179435555 244.07263553901547Q527.582179435555 253.31967344109782 530.9795096623541 256.9644913003127Q534.3993387648273 260.6093091595277 541.8464666129764 262.38672033778687L541.8464666129764 262.38672033778687L564.3678411628171 268.0564370076768Q577.3271935511368 271.13878297503754 582.1869506967568 278.8333984556025Q587.0467078423767 286.5280139361673 587.0467078423767 299.4873663244872L587.0467078423767 299.4873663244872Q587.0467078423767 309.2068806157271 584.8418180263084 315.1915815450553Q582.6594270859142 321.19878135005774 578.1371530754068 324.348623944441Q573.5923801892252 327.49846653882435 566.4602366005145 328.7134058252293Q559.3280930118037 329.92834511163426 549.4510865908446 329.92834511163426L549.4510865908446 329.92834511163426Q543.938862050674 329.92834511163426 535.1193027864007 329.4558687224768Q526.2997435221275 328.96089345764517 514.7803191769543 326.86849801994765L514.7803191769543 326.86849801994765L515.7702697066177 316.0015410693253Q525.3097929924642 316.15903319904453 531.1595006677474 316.4065208314603Q536.9867094673565 316.65400846387615 541.1939992184257 316.65400846387615Q545.4012889694948 316.65400846387615 549.9460618556764 316.65400846387615L549.9460618556764 316.65400846387615Q558.5181334875338 316.65400846387615 563.4678861358503 315.34907367477444Q568.4176387841669 314.066637761347 570.442537594842 310.3318243994354Q572.4674364055169 306.61950991319793 572.4674364055169 299.1498831893747L572.4674364055169 299.1498831893747Q572.4674364055169 292.6702069952148 571.005009486696 289.11538463869647Q569.5425825678752 285.56056228217824 566.4602366005145 283.69315560122243Q563.3778906331536 281.8257489202666 558.3606413578145 280.7008051365583L558.3606413578145 280.7008051365583L535.3667904188165 274.851097461275Q523.2173975547666 271.7912503695884 518.2001482794276 264.16413151604604Q513.1604001284143 256.55951153817773 513.1604001284143 243.75765127957712L513.1604001284143 243.75765127957712Q513.1604001284143 234.03813698833724 515.3652899444826 228.1209326860315Q517.5476808848767 222.20372838372572 522.0024582683617 219.21137791906162Q526.4572356518466 216.2190274543975 533.3418916081416 215.25157580040832Q540.2265475644365 214.28412414641917 549.4510865908446 214.28412414641917ZM540.2265475644365 348.55741416984404L546.2112484937647 270.80129983992504L553.5008842121947 271.13878297503754L547.6736754125855 348.55741416984404L540.2265475644365 348.55741416984404ZM552.5334325582055 198.55741005017688L559.8230682766354 198.55741005017688L554.4683358661838 271.13878297503754L547.0212080180347 270.80129983992504L552.5334325582055 198.55741005017688Z " fill="#292826" transform="matrix(1.476345668193339,0,0,1.4763456681933387,8.316092256352803,-103.86530980114475)"/></g></svg>